<?xml version="1.0" encoding="UTF-8" standalone="no"?>
<svg xmlns:ffdec="https://www.free-decompiler.com/flash" xmlns:xlink="http://www.w3.org/1999/xlink" ffdec:objectType="frame" height="675.55px" width="510.85px" xmlns="http://www.w3.org/2000/svg">
  <g transform="matrix(1.0, 0.0, 0.0, 1.0, 244.45, 320.15)">
    <use ffdec:characterId="81" height="158.9" transform="matrix(1.0, 0.0, 0.0, 1.0, -99.6, -320.15)" width="188.7" xlink:href="#sprite0"/>
    <use ffdec:characterId="83" height="131.35" transform="matrix(1.0, 0.0, 0.0, 1.0, 76.0, -92.1)" width="168.45" xlink:href="#sprite1"/>
    <use ffdec:characterId="83" height="131.35" transform="matrix(-0.9937, 0.1122, 0.1122, 0.9937, -58.9392, -83.6702)" width="168.45" xlink:href="#sprite1"/>
    <use ffdec:characterId="84" height="429.45" transform="matrix(1.0, 0.0, 0.0, 1.0, -190.45, -180.35)" width="364.95" xlink:href="#shape2"/>
    <use ffdec:characterId="86" height="141.3" transform="matrix(1.0, 0.0, 0.0, 1.0, -37.6, -94.4)" width="125.4" xlink:href="#sprite2"/>
    <use ffdec:characterId="87" height="116.1" transform="matrix(1.0, 0.0, 0.0, 1.0, -127.85, -136.8)" width="110.6" xlink:href="#shape4"/>
    <use ffdec:characterId="89" height="32.4" transform="matrix(1.0, 0.0, 0.0, 1.0, 29.3, -138.8)" width="50.5" xlink:href="#sprite3"/>
    <use ffdec:characterId="91" height="79.4" transform="matrix(1.0, 0.0, 0.0, 1.0, -244.4, 194.95)" width="162.65" xlink:href="#sprite4"/>
    <use ffdec:characterId="93" height="113.9" transform="matrix(1.0, 0.0, 0.0, 1.0, 39.8, 206.2)" width="182.75" xlink:href="#sprite5"/>
  </g>
  <defs>
    <g id="sprite0" transform="matrix(1.0, 0.0, 0.0, 1.0, 94.35, 79.45)">
      <use ffdec:characterId="80" height="158.9" transform="matrix(1.0, 0.0, 0.0, 1.0, -94.35, -79.45)" width="188.7" xlink:href="#shape0"/>
    </g>
    <g id="shape0" transform="matrix(1.0, 0.0, 0.0, 1.0, 94.35, 79.45)">
      <path d="M26.15 -76.8 Q36.55 -75.1 45.25 -72.6 52.75 -70.45 53.95 -69.4 55.4 -68.1 50.15 -44.7 44.05 -17.25 43.55 -10.55 43.25 -7.2 43.35 5.1 L43.35 22.65 -55.3 39.85 Q-56.95 26.55 -58.95 21.5 -61.7 14.6 -73.25 -8.5 -83.5 -28.95 -85.95 -33.25 -86.8 -34.75 -82.55 -40.75 -77.95 -47.3 -70.45 -54.2 -49.9 -73.1 -26.6 -77.45 -3.5 -81.8 26.15 -76.8" fill="#000000" fill-rule="evenodd" stroke="none"/>
      <path d="M43.7 7.7 L43.9 20.3 Q24.65 17.85 -6.75 23.5 -35.35 28.6 -56.0 36.75 L-58.25 23.9 Q-50.1 15.2 -33.25 8.85 0.45 -3.95 43.7 7.7" fill="#282e2a" fill-rule="evenodd" stroke="none"/>
      <path d="M94.25 34.5 Q95.95 45.7 69.55 57.75 43.15 69.9 4.1 75.8 -34.95 81.7 -63.7 78.0 -92.55 74.3 -94.25 63.15 -96.0 51.95 -69.55 39.85 -43.2 27.7 -4.1 21.8 34.9 15.85 63.75 19.55 92.6 23.35 94.25 34.5" fill="#000000" fill-rule="evenodd" stroke="none"/>
    </g>
    <g id="sprite1" transform="matrix(1.0, 0.0, 0.0, 1.0, 0.0, 131.35)">
      <use ffdec:characterId="82" height="131.35" transform="matrix(1.0, 0.0, 0.0, 1.0, 0.0, -131.35)" width="168.45" xlink:href="#shape1"/>
    </g>
    <g id="shape1" transform="matrix(1.0, 0.0, 0.0, 1.0, 0.0, 131.35)">
      <path d="M149.1 -130.95 Q152.2 -129.9 149.35 -122.05 L143.45 -108.65 Q151.85 -118.0 155.6 -121.7 161.95 -127.9 165.55 -125.2 169.3 -122.35 163.75 -113.65 159.05 -106.15 152.05 -100.35 153.8 -100.1 156.65 -100.95 L161.5 -102.6 Q167.15 -104.35 168.3 -100.35 170.0 -94.65 152.65 -88.65 143.9 -85.7 134.9 -83.85 L119.8 -65.95 Q102.55 -46.4 92.25 -38.0 79.25 -27.35 47.1 -14.1 15.05 -0.95 0.0 0.0 L9.0 -17.3 Q21.15 -19.15 37.35 -24.65 69.65 -35.65 90.2 -53.85 110.75 -72.05 118.7 -83.1 121.15 -86.55 122.0 -89.0 L122.45 -90.6 119.15 -93.5 Q115.15 -97.0 112.7 -100.15 104.55 -110.15 112.95 -112.2 116.25 -113.05 122.65 -106.9 L128.45 -100.55 Q130.45 -109.3 134.05 -117.45 141.2 -133.8 149.1 -130.95" fill="#000000" fill-rule="evenodd" stroke="none"/>
    </g>
    <g id="shape2" transform="matrix(1.0, 0.0, 0.0, 1.0, 190.45, 180.35)">
      <path d="M102.5 177.8 Q127.25 184.35 153.35 191.8 L174.5 198.05 159.5 212.3 Q142.35 228.45 131.75 237.8 L92.85 233.7 126.95 241.95 Q119.05 248.75 117.55 249.05 114.65 249.55 76.5 245.25 L-21.85 233.85 Q-72.45 228.15 -123.0 219.4 -148.3 215.1 -163.4 211.9 L-178.9 184.6 -156.3 184.8 -182.0 178.55 -190.45 165.65 Q-160.35 161.45 -123.05 157.8 -48.5 150.55 -12.6 153.7 23.4 156.9 102.5 177.8" fill="#2d4d00" fill-rule="evenodd" stroke="none"/>
      <path d="M-90.5 70.4 Q-48.5 87.95 5.75 105.05 38.75 115.45 105.8 134.3 L117.7 137.15 Q133.3 157.55 155.45 179.8 L174.5 198.05 116.15 190.1 Q45.2 181.1 -17.75 175.75 -73.4 171.05 -137.45 167.9 L-190.45 165.65 Q-168.05 152.35 -144.4 133.85 -97.05 96.7 -90.5 70.4" fill="#559640" fill-rule="evenodd" stroke="none"/>
      <path d="M159.65 -164.35 L169.15 -160.55 152.65 -122.85 Q134.65 -79.95 127.2 -53.7 112.5 -1.55 107.85 42.3 101.05 105.8 117.7 137.15 L105.8 134.3 Q38.75 115.45 5.75 105.05 -48.5 87.95 -90.5 70.4 -90.05 68.55 -88.8 38.55 -87.6 7.75 -87.9 1.25 -97.85 -58.6 -127.1 -99.9 -141.75 -120.6 -154.35 -129.3 -133.4 -140.3 -101.45 -152.05 -37.55 -175.55 17.6 -179.2 80.7 -183.4 131.25 -172.4 147.1 -168.95 159.65 -164.35" fill="#3c8105" fill-rule="evenodd" stroke="none"/>
      <path d="M68.8 231.05 L7.95 223.3 Q-58.5 215.0 -86.35 212.4 -114.1 209.85 -137.05 206.1 L-154.35 202.8 -112.65 205.35 Q-67.85 208.8 -28.75 214.7 10.05 220.5 43.35 226.35 L68.8 231.05" fill="#2d4300" fill-rule="evenodd" stroke="none"/>
      <path d="M146.95 206.65 L129.25 206.15 Q106.0 204.9 78.3 201.25 50.6 197.7 -16.05 191.4 L-77.2 185.65 -51.2 186.65 21.85 190.9 Q61.25 193.7 105.75 200.1 L146.95 206.65" fill="#2d4300" fill-rule="evenodd" stroke="none"/>
      <path d="M-72.45 90.35 Q-79.5 106.5 -82.9 112.2 -86.4 117.95 -94.95 125.45 L-102.85 131.8 -96.05 131.35 Q-87.8 131.6 -81.1 134.65 -74.45 137.65 -75.5 143.0 -76.0 145.6 -77.85 147.7 L-50.8 148.35 -1.45 150.9 Q17.05 152.45 47.15 157.25 L73.5 161.8 Q72.4 159.6 72.0 157.0 71.3 151.8 75.1 149.85 79.0 147.9 88.35 148.8 L97.0 150.15 71.2 112.7 80.9 116.7 Q120.85 168.55 130.3 178.5 L84.3 171.05 Q30.8 162.8 -6.9 159.2 -44.65 155.55 -100.0 154.95 -127.65 154.7 -147.85 155.1 -136.75 147.3 -124.1 137.55 -98.65 118.15 -90.7 108.35 -82.7 98.6 -78.05 85.35 L-74.95 74.0 -66.05 75.4 -72.45 90.35" fill="#3c8105" fill-rule="evenodd" stroke="none"/>
      <path d="M-109.3 -119.2 Q-98.6 -134.7 -83.55 -137.4 -72.65 -139.4 -60.9 -135.6 -49.9 -132.05 -39.95 -124.0 -30.25 -116.1 -23.6 -105.45 -16.75 -94.45 -14.7 -82.85 -10.45 -59.2 -23.35 -39.55 -36.25 -19.95 -58.75 -15.85 -69.3 -13.95 -77.6 -15.8 -85.6 -17.55 -94.3 -23.5 -94.5 -25.55 -96.7 -29.0 -98.95 -32.55 -99.25 -34.45 -92.15 -27.15 -81.85 -26.05 -74.7 -25.4 -61.05 -27.85 -42.35 -31.2 -32.25 -47.85 -22.1 -64.45 -25.85 -85.35 -29.55 -105.95 -44.45 -116.5 -59.0 -126.85 -78.05 -123.4 -93.25 -120.65 -103.7 -106.95 -113.8 -93.75 -115.0 -76.7 L-118.6 -82.6 Q-120.95 -86.4 -122.6 -88.15 -118.15 -106.6 -109.3 -119.2" fill="#2d4d00" fill-rule="evenodd" stroke="none"/>
      <path d="M-131.6 -52.9 Q-133.45 -55.1 -135.0 -60.95 -136.55 -67.0 -136.0 -69.95 -135.45 -73.05 -127.9 -74.1 L-120.95 -52.25 Q-128.95 -49.6 -131.6 -52.9" fill="#000000" fill-rule="evenodd" stroke="none"/>
    </g>
    <g id="sprite2" transform="matrix(1.0, 0.0, 0.0, 1.0, 62.7, 70.65)">
      <use ffdec:characterId="85" height="141.3" transform="matrix(1.0, 0.0, 0.0, 1.0, -62.7, -70.65)" width="125.4" xlink:href="#shape3"/>
    </g>
    <g id="shape3" transform="matrix(1.0, 0.0, 0.0, 1.0, 62.7, 70.65)">
      <path d="M62.7 -70.65 L60.85 -49.25 Q58.35 -23.5 54.85 -1.8 43.75 67.65 27.55 70.45 11.35 73.35 -27.25 28.4 -46.55 5.9 -62.7 -17.15 L-41.6 -20.15 Q-17.7 -24.0 -3.1 -27.9 11.45 -31.7 38.6 -51.6 47.0 -57.7 55.75 -64.85 L62.7 -70.65" fill="#412346" fill-rule="evenodd" stroke="none"/>
      <path d="M-14.85 32.4 Q-17.2 22.35 -11.25 13.85 -6.95 7.8 0.55 9.75 8.3 11.8 9.2 20.5 9.65 24.75 12.45 26.3 15.0 27.6 18.0 26.3 21.05 24.95 22.15 21.85 23.35 18.35 21.2 14.35 19.15 10.5 20.3 7.2 21.4 4.25 24.75 2.6 27.95 0.9 32.0 1.1 36.25 1.35 39.7 3.75 46.0 8.0 46.95 18.45 47.55 23.7 46.8 28.15 L40.65 46.85 37.8 50.85 Q34.1 55.45 29.6 58.05 15.25 66.35 -1.7 51.8 -12.4 42.65 -14.85 32.4" fill="#000000" fill-rule="evenodd" stroke="none"/>
      <path d="M29.9 40.2 Q35.7 38.05 39.8 39.3 L42.7 40.95 39.6 49.85 Q35.1 59.35 28.5 62.3 19.8 66.1 9.05 58.7 3.75 55.0 0.15 50.5 0.3 49.45 0.75 48.15 1.8 45.6 3.75 44.7 8.35 42.6 13.2 42.5 L17.1 42.75 17.05 53.35 Q17.9 50.9 19.95 48.0 24.1 42.25 29.9 40.2" fill="#b1698c" fill-rule="evenodd" stroke="none"/>
      <path d="M-26.9 10.65 Q-30.45 8.95 -51.35 -11.4 L-30.75 -15.0 Q-7.55 -19.45 5.4 -24.35 18.35 -29.15 38.6 -44.4 L56.25 -58.7 48.0 -16.45 35.7 -6.9 Q21.5 3.15 11.65 5.75 0.9 8.65 -11.55 10.25 -24.4 11.95 -26.9 10.65" fill="#ffffff" fill-rule="evenodd" stroke="none"/>
    </g>
    <g id="shape4" transform="matrix(1.0, 0.0, 0.0, 1.0, 127.85, 136.8)">
      <path d="M-78.3 -129.6 Q-59.35 -131.75 -44.25 -118.4 -29.2 -105.0 -26.8 -83.95 -24.4 -62.9 -36.15 -46.45 -47.85 -30.05 -66.75 -27.9 -75.35 -26.9 -85.25 -29.4 -95.35 -31.9 -102.0 -36.85 -105.1 -58.6 -119.9 -88.55 -117.15 -104.4 -105.35 -116.1 -93.45 -127.9 -78.3 -129.6" fill="#559640" fill-rule="evenodd" stroke="none"/>
      <path d="M-80.25 -122.0 Q-74.7 -122.1 -69.65 -120.55 -64.65 -119.05 -63.15 -116.85 -61.55 -114.4 -65.25 -112.3 -78.25 -105.05 -87.7 -97.95 -98.8 -89.55 -106.75 -79.85 -109.75 -76.2 -110.2 -80.4 -110.5 -84.55 -108.25 -92.25 -105.75 -100.8 -101.55 -107.7 -96.55 -116.1 -90.55 -119.45 -86.5 -121.8 -80.25 -122.0" fill="#9de6e6" fill-rule="evenodd" stroke="none"/>
      <path d="M-40.15 -98.7 Q-33.65 -92.7 -31.8 -86.55 -31.2 -84.65 -32.95 -85.9 L-38.55 -89.95 Q-48.9 -96.8 -57.15 -92.65 -65.85 -88.25 -70.2 -78.8 L-72.35 -73.45 Q-73.1 -71.7 -73.7 -72.5 -75.0 -74.2 -74.9 -77.95 -74.8 -82.0 -73.05 -86.4 -68.6 -97.65 -57.25 -102.75 -48.7 -106.6 -40.15 -98.7" fill="#181818" fill-rule="evenodd" stroke="none"/>
      <path d="M-44.25 -118.4 Q-59.35 -131.75 -78.3 -129.6 -97.25 -127.45 -108.9 -111.0 -120.6 -94.55 -118.2 -73.45 -115.85 -52.45 -100.75 -39.05 -85.65 -25.7 -66.75 -27.9 -47.85 -30.05 -36.15 -46.45 -24.4 -62.9 -26.8 -83.95 -29.2 -105.0 -44.25 -118.4 M-115.95 -115.05 Q-101.8 -133.8 -79.05 -136.4 -56.3 -139.0 -38.3 -123.95 -20.35 -108.95 -17.65 -85.05 -15.0 -61.2 -29.1 -42.45 -43.25 -23.7 -66.0 -21.1 -88.7 -18.5 -106.65 -33.55 -124.7 -48.6 -127.4 -72.5 -130.1 -96.35 -115.95 -115.05" fill="#000000" fill-rule="evenodd" stroke="none"/>
    </g>
    <g id="sprite3" transform="matrix(1.0, 0.0, 0.0, 1.0, 25.25, 16.2)">
      <use ffdec:characterId="88" height="32.4" transform="matrix(1.0, 0.0, 0.0, 1.0, -25.25, -16.2)" width="50.5" xlink:href="#shape5"/>
    </g>
    <g id="shape5" transform="matrix(1.0, 0.0, 0.0, 1.0, 25.25, 16.2)">
      <path d="M-24.25 16.0 Q-25.4 14.05 -25.25 9.55 -25.05 4.5 -23.3 -0.45 -18.6 -13.6 -6.3 -15.9 3.4 -17.7 13.75 -9.5 22.05 -2.85 25.05 4.45 25.9 6.3 23.5 5.0 L16.5 0.65 Q3.8 -7.15 -3.45 -6.35 -13.5 -5.15 -19.45 6.75 L-22.6 14.1 Q-23.75 16.9 -24.25 16.0" fill="#181818" fill-rule="evenodd" stroke="none"/>
    </g>
    <g id="sprite4" transform="matrix(1.0, 0.0, 0.0, 1.0, 162.65, 0.0)">
      <use ffdec:characterId="90" height="79.4" transform="matrix(1.0, 0.0, 0.0, 1.0, -162.65, 0.0)" width="162.65" xlink:href="#shape6"/>
    </g>
    <g id="shape6" transform="matrix(1.0, 0.0, 0.0, 1.0, 162.65, 0.0)">
      <path d="M-7.7 1.9 Q-2.6 -1.45 -0.55 1.15 0.25 2.2 -0.15 3.75 -0.45 5.35 -2.0 6.45 -3.6 7.75 -60.95 42.75 -117.45 77.25 -119.2 79.05 -121.3 81.3 -130.25 69.65 -136.3 61.7 -147.2 45.0 -153.9 34.75 -158.75 23.65 -163.9 11.7 -162.25 9.0 -161.3 7.75 -157.6 8.35 -153.55 9.1 -148.6 11.8 -135.45 19.1 -126.7 34.1 -121.6 42.95 -117.4 52.6 L-114.25 60.5 -63.65 33.0 Q-12.2 4.9 -7.7 1.9" fill="#000000" fill-rule="evenodd" stroke="none"/>
    </g>
    <g id="sprite5" transform="matrix(1.0, 0.0, 0.0, 1.0, 0.0, 0.0)">
      <use ffdec:characterId="92" height="113.9" transform="matrix(1.0, 0.0, 0.0, 1.0, 0.0, 0.0)" width="182.75" xlink:href="#shape7"/>
    </g>
    <g id="shape7" transform="matrix(1.0, 0.0, 0.0, 1.0, 0.0, 0.0)">
      <path d="M8.1 2.95 Q14.95 9.5 118.65 90.65 L124.25 83.05 Q131.35 73.8 139.45 65.3 152.7 51.25 169.0 48.0 174.05 46.95 178.8 47.2 L182.6 47.6 Q183.85 50.6 174.9 61.05 169.65 67.15 156.2 81.35 137.5 102.0 134.05 105.45 123.4 116.1 121.55 113.35 120.0 111.0 62.05 60.15 3.15 8.55 1.65 6.85 0.25 5.3 0.05 3.5 -0.15 1.8 0.85 0.85 3.25 -1.6 8.1 2.95" fill="#000000" fill-rule="evenodd" stroke="none"/>
    </g>
  </defs>
</svg>
